<?xml version="1.0" encoding="UTF-8" standalone="no"?>
<!-- Created with Inkscape (http://www.inkscape.org/) -->

<svg
   xmlns:dc="http://purl.org/dc/elements/1.1/"
   xmlns:cc="http://creativecommons.org/ns#"
   xmlns:rdf="http://www.w3.org/1999/02/22-rdf-syntax-ns#"
   xmlns:svg="http://www.w3.org/2000/svg"
   xmlns="http://www.w3.org/2000/svg"
   xmlns:sodipodi="http://sodipodi.sourceforge.net/DTD/sodipodi-0.dtd"
   xmlns:inkscape="http://www.inkscape.org/namespaces/inkscape"
   width="103.28596"
   height="44.000027"
   viewBox="0 0 27.327744 11.641674"
   version="1.1"
   id="svg5031"
   inkscape:version="0.92.5 (2060ec1f9f, 2020-04-08)"
   sodipodi:docname="logo.svg">
  <defs
     id="defs5025" />
  <sodipodi:namedview
     id="base"
     pagecolor="#ffffff"
     bordercolor="#666666"
     borderopacity="1.0"
     inkscape:pageopacity="0.0"
     inkscape:pageshadow="2"
     inkscape:zoom="7.9195959"
     inkscape:cx="41.344262"
     inkscape:cy="9.5005339"
     inkscape:document-units="mm"
     inkscape:current-layer="layer1"
     showgrid="false"
     units="px"
     fit-margin-top="0"
     fit-margin-left="0"
     fit-margin-right="0"
     fit-margin-bottom="0"
     inkscape:window-width="1920"
     inkscape:window-height="966"
     inkscape:window-x="1366"
     inkscape:window-y="27"
     inkscape:window-maximized="1" />
  <metadata
     id="metadata5028">
    <rdf:RDF>
      <cc:Work
         rdf:about="">
        <dc:format>image/svg+xml</dc:format>
        <dc:type
           rdf:resource="http://purl.org/dc/dcmitype/StillImage" />
        <dc:title></dc:title>
      </cc:Work>
    </rdf:RDF>
  </metadata>
  <g
     inkscape:label="Layer 1"
     inkscape:groupmode="layer"
     id="layer1"
     transform="translate(-74.026604,-128.6494)">
    <g
       transform="matrix(0.26458333,0,0,0.26458333,84.863995,154.91711)"
       id="g4974">
      <g
         transform="translate(-31.681268,-28.494395)"
         id="g4951">
        <g
           id="g4898"
           transform="translate(-9.2789512,-70.785142)">
          <path
             inkscape:connector-curvature="0"
             style="fill:#29a361"
             id="path1142"
             d="m 14.642,1.84962 -4.5749,8.73648 c -0.29542,0.564 -0.10089,1.2693 0.4375,1.5864 l 7.1635,4.2197 c 0.5459,0.3215 1.2398,0.1238 1.5502,-0.4418 L 27.9745,6.44684e-4 H 17.6401 c -1.2509,0 -2.4015,0.709528316 -2.9981,1.848975316 z" />
          <path
             inkscape:connector-curvature="0"
             style="fill:#248f55"
             id="path1144"
             d="m 27.974,0 -8.7558,15.95 c -0.311,0.5654 -1.0045,0.7636 -1.5501,0.4423 l -1.8698,-1.101 c 0.4559,0.0761 0.9301,-0.141 1.1715,-0.5814 L 25.0468,0 Z" />
          <path
             inkscape:connector-curvature="0"
             style="fill:#34cb79"
             id="path1146"
             d="M 37.5549,8.45922 34.3995,1.94901 C 33.8206,0.754574 32.641,6.44684e-4 31.3513,6.44684e-4 H 22.228 L 29.2328,12.3166 c -0.0229,0.0107 -0.046,0.0214 -0.069,0.0321 -0.4406,0.2055 -0.4226,0.8606 0.0285,1.0401 l 6.0487,2.4072 c 0.2803,0.1116 0.5948,-0.0335 0.7024,-0.3239 L 38.2751,9.17953 C 38.4475,8.71406 37.9948,8.26491 37.5549,8.45922 Z" />
          <path
             inkscape:connector-curvature="0"
             style="fill:#2fb86e"
             id="path1148"
             d="m 38.2751,9.17899 -2.3324,6.29251 c -0.1071,0.2912 -0.4221,0.4364 -0.7021,0.3243 L 33.4104,15.0671 35.5922,9.17899 C 35.7162,8.84506 35.5181,8.51988 35.2339,8.43458 34.9632,8.35326 34.7321,8.16954 34.6056,7.90858 L 31.7165,1.94875 C 31.1379,0.754706 29.9587,0 28.6685,0 h 2.6829 c 1.2893,0 2.4685,0.754706 3.048,1.94875 l 3.1552,6.5107 c 0.4405,-0.19421 0.8925,0.25416 0.7205,0.71954 z" />
          <path
             inkscape:connector-curvature="0"
             style="fill:#29a361"
             id="path1150"
             d="m 31.4594,33.5593 c -0.085,-0.3615 -0.535,-0.5163 -0.8096,-0.2318 l -4.7276,4.8993 c -0.1886,0.1955 -0.1886,0.5123 0,0.7077 l 4.7458,4.9181 c 0.2728,0.2827 0.7182,0.1318 0.8078,-0.2235 h 6.979 c 1.2849,0 2.4608,-0.7482 3.0421,-1.9357 l 3.9822,-8.1342 H 31.4594 Z" />
          <path
             inkscape:connector-curvature="0"
             style="fill:#248f55"
             id="path1152"
             d="m 37.3508,33.5594 2.2629,3.5485 c 0.5116,0.8022 0.5682,1.8274 0.1483,2.6849 l -0.9307,1.9007 c -0.5804,1.1871 -1.7568,1.9358 -3.0413,1.9358 h 2.6647 c 1.2845,0 2.4608,-0.7487 3.0423,-1.9358 l 3.9819,-8.134 h -8.1281 z" />
          <path
             inkscape:connector-curvature="0"
             style="fill:#29a361"
             id="path1154"
             d="m 21.9354,42.6939 v -8.6583 c 0,-0.6507 -0.5091,-1.1784 -1.1371,-1.1784 H 2.06787 l 4.82025,9.1709 c 0.59747,1.1368 1.74657,1.8442 2.9956,1.8442 H 20.7983 c 0.6279,0 1.1371,-0.5275 1.1371,-1.1784 z" />
          <path
             inkscape:connector-curvature="0"
             style="fill:#248f55"
             id="path1156"
             d="M 10.0115,32.858 5.85181,40.0573 2.06787,32.858 Z" />
          <path
             inkscape:connector-curvature="0"
             style="fill:#248f55"
             id="path1158"
             d="m 21.935,34.0358 v 8.6586 c 0,0.6506 -0.509,1.178 -1.1367,1.178 h -2.9834 c 0.6278,0 1.1368,-0.5274 1.1368,-1.178 v -8.6586 c 0,-0.6506 -0.509,-1.178 -1.1368,-1.178 h 2.9834 c 0.6277,-10e-5 1.1367,0.5274 1.1367,1.178 z" />
          <path
             inkscape:connector-curvature="0"
             style="fill:#34cb79"
             id="path1160"
             d="M 12.7847,25.2066 11.9436,18.6467 C 11.902,18.3226 11.6148,18.0949 11.3021,18.1379 l -6.35426,0.875 C 4.46934,19.0788 4.29102,19.682 4.61877,20.0176 L 0.608522,26.0077 C -0.126759,27.106 -0.201384,28.54 0.415585,29.7138 l 4.363965,8.3029 7.08585,-12.266 c 0.0025,0.0019 0.0049,0.0039 0.0075,0.0059 0.4044,0.3181 0.9786,-0.0284 0.9118,-0.55 z" />
          <path
             inkscape:connector-curvature="0"
             style="fill:#2fb86e"
             id="path1162"
             d="m 11.8725,25.7566 c -0.002,-0.0021 -0.0048,-0.004 -0.0068,-0.006 L 4.77961,38.0163 3.32227,35.2438 9.08977,25.2586 9.2497,24.9816 c 0.08747,-0.1514 0.25838,-0.2168 0.42553,-0.1832 8.5e-4,2e-4 0.00169,3e-4 0.00254,5e-4 0.35563,0.0657 0.72033,-0.2413 0.66573,-0.6627 L 9.60464,18.3712 11.3015,18.138 c 0.313,-0.043 0.6008,0.1852 0.6423,0.5084 l 0.8412,6.5608 c 0.0668,0.5213 -0.5079,0.8676 -0.9125,0.5494 z" />
        </g>
        <path
           inkscape:connector-curvature="0"
           d="m 38.116949,-45.228242 -5.4856,-8.2372 c -0.3364,-0.5053 -0.991,-0.6582 -1.5041,-0.3513 l -7.1488,4.2751 c -0.5674,0.3393 -0.7415,1.104 -0.3803,1.6704 l 10.0778,15.8012 4.6757,-9.5508 c 0.5659,-1.156 0.4759,-2.5404 -0.2347,-3.6074 z"
           id="path1164"
           style="fill:#34cb79" />
        <path
           inkscape:connector-curvature="0"
           d="m 38.351549,-41.620642 -4.6764,9.5503 -1.5684,-2.4602 3.4711,-7.0902 c 0.5659,-1.156 0.4761,-2.5402 -0.2347,-3.6072 l -5.2915,-7.9449 1.0758,-0.6436 c 0.5129,-0.3073 1.1677,-0.1542 1.5038,0.3513 l 5.4857,8.2373 c 0.7107,1.067 0.8005,2.4512 0.2346,3.6072 z"
           id="path1166"
           style="fill:#2fb86e" />
      </g>
      <g
         transform="translate(-34.868141,-105.26054)"
         id="g4935">
        <path
           d="M 43.765478,28.397185 V 6.2211857 h 14.976 v 4.1920003 h -9.984 v 4.352 h 8.864 v 4.095999 h -8.864 v 5.344 h 10.72 v 4.192 z"
           id="path1128"
           inkscape:connector-curvature="0"
           style="fill:#30336b;fill-opacity:0.99607843" />
        <path
           d="m 61.411562,19.053291 c 0,-1.216 0.192,-2.3573 0.576,-3.424001 0.4054,-1.088 0.9814,-2.0267 1.7281,-2.816 0.7466,-0.8107 1.6533,-1.4507 2.7199,-1.92 1.0667,-0.4693 2.2827,-0.704 3.6481,-0.704 0.8959,0 1.7177,0.0853 2.4637,0.256 0.747,0.1493 1.472,0.3733 2.176,0.672 l -0.992,3.808 c -0.448,-0.1707 -0.938,-0.32 -1.472,-0.448 -0.533,-0.128 -1.1304,-0.192 -1.7917,-0.192 -1.408,0 -2.464,0.4373 -3.1681,1.312 -0.6826,0.874701 -1.024,2.026701 -1.024,3.456001 0,1.5147 0.3201,2.688 0.9601,3.52 0.6613,0.832 1.8026,1.248 3.424,1.248 0.576,0 1.1947,-0.0533 1.8557,-0.16 0.662,-0.1067 1.27,-0.2773 1.824,-0.512 l 0.672,3.904 c -0.554,0.2347 -1.248,0.4373 -2.08,0.608 -0.832,0.1707 -1.7491,0.256 -2.7517,0.256 -1.536,0 -2.8587,-0.224 -3.968,-0.672 -1.1094,-0.4693 -2.0267,-1.0987 -2.7521,-1.888 -0.704,-0.7893 -1.2266,-1.7173 -1.5679,-2.784 -0.32,-1.088 -0.4801,-2.2613 -0.4801,-3.52 z"
           id="path1130"
           inkscape:connector-curvature="0"
           style="fill:#30336b;fill-opacity:1" />
        <path
           d="m 93.424566,19.098941 c 0,1.3227 -0.192,2.5387 -0.576,3.648 -0.384,1.088 -0.939,2.0267 -1.664,2.816 -0.726,0.768 -1.6,1.3653 -2.624,1.792 -1.003,0.4267 -2.13401,0.64 -3.39201,0.64 -1.238,0 -2.368,-0.2133 -3.392,-0.64 -1.003,-0.4267 -1.867,-1.024 -2.592,-1.792 -0.726,-0.7893 -1.291,-1.728 -1.696,-2.816 -0.406,-1.1093 -0.608,-2.3253 -0.608,-3.648 0,-1.3227 0.202,-2.528 0.608,-3.616 0.426,-1.088 1.002,-2.016 1.728,-2.784 0.746,-0.768 1.621,-1.3653 2.624,-1.792 1.024,-0.4267 2.133,-0.64 3.328,-0.64 1.216,0 2.32501,0.2133 3.32801,0.64 1.024,0.4267 1.898,1.024 2.624,1.792 0.725,0.768 1.29,1.696 1.696,2.784 0.405,1.088 0.608,2.2933 0.608,3.616 z m -4.864,0 c 0,-1.472 -0.299,-2.624 -0.896,-3.456 -0.57601,-0.8533 -1.40801,-1.28 -2.49601,-1.28 -1.088,0 -1.931,0.4267 -2.528,1.28 -0.598,0.832 -0.896,1.984 -0.896,3.456 0,1.472 0.298,2.6453 0.896,3.52 0.597,0.8533 1.44,1.28 2.528,1.28 1.088,0 1.92,-0.4267 2.49601,-1.28 0.597,-0.8747 0.896,-2.048 0.896,-3.52 z"
           id="path1132"
           inkscape:connector-curvature="0"
           style="fill:#30336b;fill-opacity:1" />
        <text
           xml:space="preserve"
           style="font-style:normal;font-weight:normal;font-size:24px;line-height:1.25;font-family:sans-serif;letter-spacing:0px;word-spacing:0px;fill:#34cb79;fill-opacity:1;stroke:none"
           x="45.479042"
           y="43.835285"
           id="text4885"><tspan
             sodipodi:role="line"
             id="tspan4883"
             x="45.479042"
             y="43.835285"
             style="font-style:normal;font-variant:normal;font-weight:bold;font-stretch:normal;font-family:sans-serif;-inkscape-font-specification:'sans-serif Bold';fill:#34cb79;fill-opacity:1">proj</tspan></text>
      </g>
    </g>
  </g>
</svg>
